# xmcd
#
# Track frame offsets: 
#        150
#        31022
#        61787
#        89487
#        130805
#        156232
#        187175
#        211750
#
# Disc length: 3163 seconds
#
# Revision: 30
# Processed by: cddbd v1.5.2PL0 Copyright (c) Steve Scherf et al.
# Submitted via: ExactAudioCopyFreeDBPlugin 1.0
#
DISCID=650c5908
DTITLE=Clapton, Eric - 24 Nights (1)
DYEAR=1991
DGENRE=Blues
TTITLE0=Badge
TTITLE1=Running on Faith
TTITLE2=White Room
TTITLE3=Sunshine of Your Love
TTITLE4=Watch Yourself
TTITLE5=Have You Ever Loved a Woman
TTITLE6=Worried Life Blues
TTITLE7=Hoodoo Man
EXTD=
EXTT0=
EXTT1=
EXTT2=
EXTT3=
EXTT4=
EXTT5=
EXTT6=
EXTT7=
PLAYORDER=
